<?xml version="1.0" encoding="utf-8"?>
<!-- Generator: Adobe Illustrator 20.1.0, SVG Export Plug-In . SVG Version: 6.00 Build 0)  -->
<!DOCTYPE svg PUBLIC "-//W3C//DTD SVG 1.1//EN" "http://www.w3.org/Graphics/SVG/1.1/DTD/svg11.dtd">
<svg version="1.1" id="Calque_1" xmlns="http://www.w3.org/2000/svg" xmlns:xlink="http://www.w3.org/1999/xlink" x="0px" y="0px"
	 viewBox="0 0 786.1 204.7" style="enable-background:new 0 0 786.1 204.7;" xml:space="preserve">
<style type="text/css">
	.st0{fill:#19505F;}
</style>
<g>
	<path class="st0" d="M140.3,126.7h-13c-2.9,0-4.9-3-3.7-5.7L173.5,4.9c0.6-1.5,2.1-2.5,3.7-2.5h18.9c1.6,0,3.1,1,3.7,2.5L249.4,121
		c1.1,2.7-0.8,5.6-3.7,5.6h-13.5c-1.6,0-3.1-1-3.7-2.5l-40.3-94.8c-0.7-1.7-3.2-1.7-3.9,0l-40.1,94.8
		C143.4,125.7,141.9,126.7,140.3,126.7z"/>
	<path class="st0" d="M618,99.7L658.1,5c0.6-1.5,2.1-2.5,3.7-2.5h13c2.9,0,4.9,3,3.7,5.7l-49.9,116.1c-0.6,1.5-2.1,2.5-3.7,2.5H606
		c-1.6,0-3.1-1-3.7-2.5L552.8,8.1c-1.1-2.7,0.8-5.6,3.7-5.6h13.5c1.6,0,3.1,1,3.7,2.5l40.3,94.8C614.8,101.4,617.3,101.4,618,99.7z"
		/>
	<path class="st0" d="M516.8,2.5h13c2.9,0,4.9,3,3.7,5.7l-49.9,116.1c-0.6,1.5-2.1,2.5-3.7,2.5h-13c-2.9,0-4.9-3-3.7-5.7L513.1,4.9
		C513.7,3.4,515.2,2.5,516.8,2.5z"/>
	<g>
		<path d="M111.4,24.1l-7,8.8c-1.5,1.9-4.2,2-6,0.3C89.6,25.3,78.2,20.6,67,20.6c-24.8,0-44.4,19.2-44.4,43.6s19.5,43.8,44.4,43.8
			c11.2,0,22.6-4.6,31.6-12.1c1.7-1.4,4.2-1.3,5.7,0.3l7,7.8c1.5,1.7,1.4,4.3-0.3,5.8c-12.4,10.8-28.9,17.7-45.1,17.7
			c-36.4,0-64.6-27.5-64.6-63.2c0-35.3,28.6-62.5,65.3-62.5c16.2,0,32.5,6.2,44.4,16.6C112.7,19.9,112.8,22.4,111.4,24.1z"/>
		<path d="M315,2.5c31.2,0,49.1,15.4,49.1,42.4c0,28-17.9,44.4-49.1,44.4h-24.5c-2.2,0-4.1,1.8-4.1,4.1v29.3c0,2.2-1.8,4.1-4.1,4.1
			h-12.8c-2.2,0-4.1-1.8-4.1-4.1V6.5c0-2.2,1.8-4.1,4.1-4.1H315z M286.5,66.4c0,2.2,1.8,4.1,4.1,4.1h23.6c19.2,0,30-8.2,30-25
			c0-16.3-10.8-24.1-30-24.1h-23.6c-2.2,0-4.1,1.8-4.1,4.1V66.4z"/>
		<path d="M431.9,25.3v97.3c0,2.2-1.8,4.1-4.1,4.1H415c-2.2,0-4.1-1.8-4.1-4.1V25.3c0-2.2-1.8-4.1-4.1-4.1h-31.1
			c-2.2,0-4.1-1.8-4.1-4.1V6.5c0-2.2,1.8-4.1,4.1-4.1h91.4c2.2,0,4.1,1.8,4.1,4.1v10.7c0,2.2-1.8,4.1-4.1,4.1h-31.3
			C433.7,21.3,431.9,23.1,431.9,25.3z"/>
		<path d="M714.2,25.3v25.4c0,2.2,1.8,4.1,4.1,4.1h52.6c2.2,0,4.1,1.8,4.1,4.1v10.7c0,2.2-1.8,4.1-4.1,4.1h-52.6
			c-2.2,0-4.1,1.8-4.1,4.1v26.1c0,2.2,1.8,4.1,4.1,4.1h61.8c2.2,0,4.1,1.8,4.1,4.1v10.7c0,2.2-1.8,4.1-4.1,4.1h-82.7
			c-2.2,0-4.1-1.8-4.1-4.1V6.5c0-2.2,1.8-4.1,4.1-4.1H778c2.2,0,4.1,1.8,4.1,4.1v10.7c0,2.2-1.8,4.1-4.1,4.1h-59.7
			C716.1,21.3,714.2,23.1,714.2,25.3z"/>
	</g>
	<g>
		<g>
			<path d="M24.5,191.6v4.6h-18v-29.9h5v25.3H24.5z"/>
			<path d="M35.9,169c0,0.9-0.3,1.5-0.8,2.2l-2.4,3.7h-2.5l1.6-3.7c-0.8-0.5-1.2-1.3-1.2-2.2c0-1.6,1.1-2.7,2.6-2.7
				C34.7,166.3,35.9,167.2,35.9,169z"/>
			<path d="M44.9,196.2v-29.9h5v29.9H44.9z"/>
			<path d="M81,196.2L65,174.7v21.4h-5v-29.9h5l16,21.5v-21.5h5v29.9H81z"/>
			<path d="M100,170.8v8.6h13.6v4.5H100v12.3h-5v-29.9H115l0,4.5H100z"/>
			<path d="M153.6,181.2c0,8.5-6.9,15.2-15.9,15.2s-15.9-6.6-15.9-15.2c0-8.6,6.9-15.1,15.9-15.1S153.6,172.7,153.6,181.2z
				 M127,181.2c0,5.9,4.9,10.6,10.8,10.6c5.9,0,10.6-4.7,10.6-10.6s-4.8-10.6-10.6-10.6C131.9,170.7,127,175.3,127,181.2z"/>
			<path d="M175.3,187.1c-0.4,0-0.9,0-1.4,0h-7.1v9h-5v-29.9h12.1c7.6,0,12,3.7,12,10.2c0,4.8-2.2,8.2-6.2,9.7l6.7,10h-5.7
				L175.3,187.1z M173.9,182.6c4.6,0,7.3-2,7.3-6c0-3.9-2.6-5.8-7.3-5.8h-7.1v11.8H173.9z"/>
			<path d="M223.1,196.2l0-22.3l-9.4,19.2h-3.3l-9.4-19.2v22.3h-4.7v-29.9h6l9.9,19.9l9.8-19.9h5.9v29.9H223.1z"/>
			<path d="M243.1,189.4l-2.9,6.8H235l13.2-29.9h5.2l13.1,29.9H261l-2.9-6.8H243.1z M250.6,171.6l-5.6,13.3h11.3L250.6,171.6z"/>
			<path d="M283.1,170.8v25.4h-5v-25.4h-9.4v-4.5h24v4.5H283.1z"/>
			<path d="M300.1,196.2v-29.9h5v29.9H300.1z"/>
			<path d="M347.2,199.5c-2.3,2-5.3,3.3-8.1,3.3c-3.8,0-7.1-2.3-9.5-6.4c-8.9,0-15.8-6.6-15.8-15.2c0-8.6,6.9-15.1,15.9-15.1
				c8.9,0,15.9,6.5,15.9,15.1c0,6.8-4.4,12.4-10.8,14.4c1.6,1.8,3.3,2.8,5,2.8c1.6,0,3.5-0.9,5.5-2.5L347.2,199.5z M329.7,191.9
				c5.9,0,10.6-4.7,10.6-10.6s-4.8-10.6-10.6-10.6c-5.9,0-10.8,4.6-10.8,10.6S323.8,191.9,329.7,191.9z"/>
			<path d="M380.1,183.8c0,7.8-4.9,12.6-13,12.6c-8.1,0-13-4.8-13-12.6v-17.5h5v17.5c0,5,3.1,8.1,8,8.1c4.9,0,7.9-3,7.9-8.1v-17.5h5
				V183.8z"/>
			<path d="M394.5,170.8v8.1h14.6v4.5h-14.6v8.2h16.8v4.5h-21.9v-29.9h21.4v4.5H394.5z"/>
		</g>
		<g>
			<path d="M440.2,189.4l-2.9,6.8h-5.3l13.2-29.9h5.2l13.1,29.9h-5.4l-2.9-6.8H440.2z M447.7,171.6l-5.6,13.3h11.3L447.7,171.6z"/>
			<path d="M476.4,196.2l-11.9-29.9h5.4l9.2,24.3l9.3-24.3h5.3l-12.1,29.9H476.4z"/>
			<path d="M505.7,170.8v8.1h14.6v4.5h-14.6v8.2h16.8v4.5h-21.9v-29.9H522v4.5H505.7z"/>
			<path d="M557.1,170.8l-2.9,3.7c-2.2-2.3-5.3-3.8-8.3-3.8c-6,0-10.7,4.6-10.7,10.5c0,5.9,4.7,10.6,10.7,10.6c3,0,6.1-1.4,8.3-3.5
				l3,3.3c-3,3-7.4,4.9-11.6,4.9c-8.8,0-15.6-6.6-15.6-15.2c0-8.5,6.9-15,15.7-15C550,166.1,554.2,167.9,557.1,170.8z"/>
		</g>
		<g>
			<path d="M595.1,166.3c9,0,15.5,6.3,15.5,15c0,8.6-6.5,15-15.6,15h-12.1v-29.9H595.1z M587.9,191.6h7.4c5.8,0,10.3-4.3,10.3-10.4
				c0-6.1-4.6-10.5-10.5-10.5h-7.1V191.6z"/>
			<path d="M642.5,183.8c0,7.8-4.9,12.6-13,12.6c-8.1,0-13-4.8-13-12.6v-17.5h5v17.5c0,5,3.1,8.1,8,8.1c4.9,0,7.9-3,7.9-8.1v-17.5h5
				V183.8z"/>
		</g>
		<g>
			<path d="M686.4,169.1l-2.1,4.4c-3.2-2-6.5-2.8-8.8-2.8c-2.9,0-4.9,1.1-4.9,3.1c0,6.5,16.2,3,16.1,13.8c0,5.3-4.7,8.6-11.3,8.6
				c-4.7,0-9.1-1.9-12.2-4.7l2.2-4.4c3.1,2.8,6.9,4.4,10.1,4.4c3.5,0,5.6-1.3,5.6-3.6c0-6.7-16.2-2.9-16.2-13.6
				c0-5.1,4.4-8.3,10.9-8.3C679.8,166,683.6,167.3,686.4,169.1z"/>
			<path d="M701.5,170.8v8.1h14.6v4.5h-14.6v8.2h16.8v4.5h-21.9v-29.9h21.4v4.5H701.5z"/>
			<path d="M748.1,196.2l-15.9-21.4v21.4h-5v-29.9h5l16,21.5v-21.5h5v29.9H748.1z"/>
			<path d="M784.4,169.1l-2.1,4.4c-3.2-2-6.5-2.8-8.8-2.8c-2.9,0-4.9,1.1-4.9,3.1c0,6.5,16.2,3,16.1,13.8c0,5.3-4.7,8.6-11.3,8.6
				c-4.7,0-9.1-1.9-12.2-4.7l2.2-4.4c3.1,2.8,6.9,4.4,10.1,4.4c3.5,0,5.6-1.3,5.6-3.6c0-6.7-16.2-2.9-16.2-13.6
				c0-5.1,4.4-8.3,10.9-8.3C777.8,166,781.6,167.3,784.4,169.1z"/>
		</g>
	</g>
</g>
</svg>
